<?xml version="1.0" encoding="UTF-8" standalone="no" ?>
<!DOCTYPE svg PUBLIC "-//W3C//DTD SVG 1.1//EN" "http://www.w3.org/Graphics/SVG/1.1/DTD/svg11.dtd">
<svg xmlns="http://www.w3.org/2000/svg" xmlns:xlink="http://www.w3.org/1999/xlink" version="1.1" width="48" height="48" viewBox="0 0 48 48" xml:space="preserve">
<desc>Created with Fabric.js 5.3.0</desc>
<defs>
</defs>
<g transform="matrix(0.07123854037973613 0 0 0.07123854037973613 24.41552989578843 24.33246002591765)" id="background-e7d94e91-10ce-4199-a4d9-36fa93f9b1a9"  >
<rect style="stroke: none; stroke-width: 0; stroke-dasharray: none; stroke-linecap: butt; stroke-dashoffset: 0; stroke-linejoin: miter; stroke-miterlimit: 4; fill: rgb(4,44,60); fill-rule: nonzero; opacity: 1;"  paint-order="stroke"  x="-340" y="-340" rx="0" ry="0" width="680" height="680" />
</g>
<g transform="matrix(0.14 0 0 0.14 24.39575169513367 24.312681825262896)" id="maker-logo"  >
<g style=""  paint-order="stroke"   >
		<g transform="matrix(1 0 0 1 -0.07278835386335913 -12.459498880179126)" id="logo-logo"  >
<g style=""  paint-order="stroke"   >
		<g transform="matrix(0.5972852348664289 0 0 0.5972852348664289 0 52.65594744317994)"  >
<path style="stroke: none; stroke-width: 0; stroke-dasharray: none; stroke-linecap: butt; stroke-dashoffset: 0; stroke-linejoin: miter; stroke-miterlimit: 4; fill: rgb(248,249,250); fill-rule: nonzero; opacity: 1;"  paint-order="stroke"  transform=" translate(-250, -338.15879645)" d="M 384.1250152 367.8334906 C 384.1250152 394.6956613 376.2157271 419.7073604 362.6138044 440.6844643 C 359.1057331 420.7893116 350.1007565 401.8935762 336.1015506 387.2715753 C 325.4926048 376.1907252 311.5779109 360.7569038 319.9058026 344.6578665 C 327.3650562 330.12257550000004 327.2583447 320.58931670000004 326.2370576 315.403754 C 324.46186650000004 306.38976579999996 316.2123325 301.88711259999997 300.31737680000003 300.3320483 C 285.67735250000004 298.8998505 274.3550553 283.4342684 274.80322160000003 268.7311624 C 275.01334760000003 261.838216 275.0179633 248.2083791 274.9679595 236.06492000000003 C 337.106463 247.76922450000004 384.1250152 302.2941769 384.1250152 367.8334907 Z M 193.18696 264.560183 C 199.7243519 260.6794765 210.0751642 257.7088803 217.8310071 255.8308312 C 223.4819335 254.46248 227.450248 249.39524120000002 227.450248 243.5810041 L 227.450248 235.6331286 C 164.1173672 246.3607648 115.8749848 301.4467492 115.8749848 367.83349069999997 C 115.8749848 394.6764292 123.7910866 419.66702779999997 137.38245899999998 440.6368783 C 140.89646489999998 420.75919949999997 149.89847419999998 401.88192699999996 163.8865803 387.27157539999996 C 174.4954162 376.19072529999994 188.4101101 360.75690389999994 180.0822184 344.6578666 C 169.9073719 324.98833559999997 163.20773699999998 301.90843309999997 174.39474909999998 282.7964173 C 178.8625644 275.163524 185.58165129999998 269.07481509999997 193.1869601 264.56018309999996 Z" stroke-linecap="round" />
</g>
		<g transform="matrix(0.5972852348664289 0 0 0.5972852348664289 -0.0035445892262941925 -91.56418917661819)"  >
<path style="stroke: none; stroke-width: 0; stroke-dasharray: none; stroke-linecap: butt; stroke-dashoffset: 0; stroke-linejoin: miter; stroke-miterlimit: 4; fill: rgb(248,249,250); fill-rule: nonzero; opacity: 1;"  paint-order="stroke"  transform=" translate(-249.99406549999998, -96.6993928)" d="M 291.5913227 105.4695161 L 276.83360439999996 103.68047770000001 L 276.83360439999996 89.71830760000002 L 291.5913227 87.92915930000002 L 291.5913227 105.46951600000003 Z M 291.5913227 65.3684104 L 276.83360439999996 67.1574488 L 276.83360439999996 81.11972879999999 L 291.5913227 82.90876719999999 L 291.5913227 65.36841049999998 Z M 291.5913227 110.4900185 L 276.83360439999996 112.2790569 L 276.83360439999996 126.2413369 L 291.5913227 128.0303753 L 291.5913227 110.4900186 Z M 223.1544167 112.2790568 L 208.3968083 110.49001840000001 L 208.3968083 128.03037510000001 L 223.1544167 126.24133670000002 L 223.1544167 112.27905670000001 Z M 223.1544167 67.1574487 L 208.3968083 65.36841030000001 L 208.3968083 82.90876700000001 L 223.1544167 81.11972860000002 L 223.1544167 67.15744860000001 Z M 223.1544167 89.7183077 L 208.3968083 87.9291594 L 208.3968083 105.4695161 L 223.1544167 103.68047770000001 L 223.1544167 89.71830760000002 Z" stroke-linecap="round" />
</g>
		<g transform="matrix(0.5972852348664289 0 0 0.5972852348664289 -0.003577410050013441 -20.358420761630953)"  >
<path style="stroke: none; stroke-width: 0; stroke-dasharray: none; stroke-linecap: butt; stroke-dashoffset: 0; stroke-linejoin: miter; stroke-miterlimit: 4; fill: rgb(248,249,250); fill-rule: nonzero; opacity: 1;"  paint-order="stroke"  transform=" translate(-249.99401054999998, -215.9150778)" d="M 265.2632484 317.8985169 L 265.2632484 133.0514737 L 268.4280215 133.0514737 L 268.4280215 59.3155357 L 231.5601053 59.3155357 L 231.5601053 133.0514737 L 234.7242446 133.0514737 L 234.7242446 317.89883380000003 C 226.22847679999998 323.0672589 220.5353711 332.38474800000006 220.5353711 343.0559276 C 220.5353711 359.32545980000003 233.7244256 372.5146199 249.9940634 372.5146199 C 266.2635956 372.5146199 279.45265 359.32545980000003 279.45265 343.0559276 C 279.45265 332.3845367 273.7592275 323.0668364 265.2632484 317.8985169 Z M 245.1084185 133.0514737 L 254.8790744 133.0514737 L 254.8790744 314.0351909 C 253.2867583 313.7687838 251.66211850000002 313.59723529999997 249.99406340000002 313.59723529999997 C 248.3259026 313.59723529999997 246.70094590000002 313.7688894 245.10841860000002 314.03529649999996 L 245.10841860000002 133.05147359999995 Z" stroke-linecap="round" />
</g>
</g>
</g>
</g>
</g>
</svg>